<svg width="22" height="17" viewBox="0 0 22 17" fill="none" xmlns="http://www.w3.org/2000/svg">
<path d="M0.139648 11.8999C0.139648 10.7399 0.489648 9.71986 1.19965 8.81986C1.90965 7.91986 2.81965 7.34986 3.93965 7.09986C4.16965 6.06986 4.63965 5.16986 5.33965 4.39986C6.03965 3.62986 6.88965 3.07986 7.86965 2.74986C8.48965 2.53986 9.12965 2.42986 9.79965 2.42986C10.6096 2.42986 11.3996 2.58986 12.1496 2.90986C12.4296 2.43986 12.7596 2.02986 13.1396 1.68986C13.5196 1.34986 13.9096 1.07986 14.3096 0.899863C14.7096 0.719863 15.1096 0.579863 15.4896 0.489863C15.8696 0.399863 16.2496 0.359863 16.6096 0.359863C16.9896 0.359863 17.3996 0.409863 17.8396 0.519863L18.6596 0.769863C18.7996 0.829863 18.8396 0.899863 18.7996 0.989863L18.6596 1.58986C18.5896 1.89986 18.5596 2.18986 18.5596 2.44986C18.5596 2.75986 18.6096 3.07986 18.7096 3.39986C18.8096 3.71986 18.9496 4.02986 19.1496 4.33986C19.3396 4.64986 19.6096 4.91986 19.9496 5.16986C20.2896 5.41986 20.6696 5.60986 21.0996 5.73986L21.7196 5.95986C21.8196 5.98986 21.8696 6.03986 21.8696 6.11986C21.8696 6.13986 21.8596 6.15986 21.8496 6.18986L21.6696 6.85986C21.3996 7.93986 20.8896 8.78986 20.1696 9.42986C20.5696 10.1299 20.7896 10.8799 20.8196 11.6699C20.8296 11.7199 20.8296 11.7899 20.8296 11.8999C20.8296 12.7899 20.6096 13.6199 20.1596 14.3799C19.7196 15.1399 19.1096 15.7399 18.3596 16.1799C17.5996 16.6199 16.7696 16.8499 15.8796 16.8499H5.06965C4.17965 16.8499 3.34965 16.6299 2.58965 16.1799C1.82965 15.7299 1.23965 15.1299 0.799649 14.3799C0.359649 13.6299 0.139648 12.7999 0.139648 11.8999ZM1.84965 11.8999C1.84965 12.7899 2.16965 13.5599 2.80965 14.2099C3.44965 14.8599 4.19965 15.1899 5.06965 15.1899H15.8796C16.7696 15.1899 17.5296 14.8699 18.1596 14.2199C18.7896 13.5699 19.1096 12.7999 19.1096 11.8999C19.1096 11.0199 18.7896 10.2699 18.1496 9.63986C17.5096 9.00986 16.7496 8.68986 15.8696 8.68986H14.0896L13.9896 7.93986C13.8896 6.92986 13.4696 6.05986 12.7296 5.34986C11.9896 4.63986 11.1096 4.23986 10.0996 4.14986C10.0696 4.14986 10.0196 4.14986 9.94965 4.13986C9.87965 4.12986 9.83965 4.12986 9.79965 4.12986C9.28965 4.12986 8.77965 4.22986 8.25965 4.41986V4.39986C7.52965 4.67986 6.90965 5.13986 6.41965 5.76986C5.91965 6.39986 5.61965 7.11986 5.51965 7.93986L5.44965 8.65986L4.76965 8.68986C3.92965 8.78986 3.22965 9.13986 2.66965 9.74986C2.10965 10.3599 1.84965 11.0699 1.84965 11.8999ZM13.5996 3.78986C14.6596 4.69986 15.3196 5.75986 15.5696 6.96986H15.8896C17.1296 6.96986 18.1896 7.35986 19.0596 8.14986C19.3896 7.83986 19.6396 7.47986 19.8196 7.07986C18.9096 6.64986 18.1896 5.98986 17.6596 5.10986C17.1396 4.22986 16.8696 3.29986 16.8696 2.32986V2.08986C16.8196 2.07986 16.7396 2.07986 16.6296 2.07986C16.0496 2.06986 15.4796 2.20986 14.9296 2.51986C14.3796 2.81986 13.9296 3.23986 13.5996 3.78986Z" fill="#314484"/>
</svg>
