<svg width="28" height="22" viewBox="0 0 28 22" fill="none" xmlns="http://www.w3.org/2000/svg">
<path d="M0.55957 16.9002C0.55957 17.8002 0.77957 18.6302 1.21957 19.3902C1.65957 20.1502 2.25957 20.7502 3.01957 21.1902C3.77957 21.6302 4.59957 21.8502 5.48957 21.8502H16.3196C17.2096 21.8502 18.0396 21.6302 18.7996 21.1902C19.5596 20.7502 20.1696 20.1502 20.6096 19.3902C21.0496 18.6302 21.2796 17.8002 21.2796 16.9002C21.2796 16.2402 21.1396 15.5702 20.8596 14.9002C21.6196 13.9802 21.9996 12.8702 21.9996 11.6002C21.9996 10.8902 21.8596 10.2102 21.5896 9.56016C21.3196 8.91016 20.9396 8.36016 20.4696 7.89016C19.9996 7.42016 19.4496 7.04016 18.7996 6.77016C18.1496 6.49016 17.4696 6.36016 16.7596 6.36016C15.2796 6.36016 13.9896 6.94016 12.8796 8.10016C12.1096 7.66016 11.2096 7.44016 10.1796 7.44016C8.76957 7.44016 7.52957 7.88016 6.44957 8.75016C5.36957 9.62016 4.66957 10.7402 4.36957 12.1002C3.24957 12.3602 2.33957 12.9302 1.62957 13.8302C0.919571 14.7302 0.55957 15.7502 0.55957 16.9002ZM2.26957 16.9002C2.26957 16.0602 2.54957 15.3402 3.10957 14.7302C3.66957 14.1202 4.36957 13.7702 5.20957 13.6702L5.70957 13.6402C5.82957 13.6402 5.89957 13.5802 5.89957 13.4602L5.96957 12.9202C6.10957 11.8402 6.57957 10.9302 7.37957 10.2102C8.17957 9.48016 9.11957 9.12016 10.1896 9.12016C11.2896 9.12016 12.2496 9.49016 13.0596 10.2202C13.8796 10.9502 14.3296 11.8502 14.4296 12.9302L14.4996 13.5102C14.5196 13.6202 14.5896 13.6802 14.7096 13.6802H16.3196C17.1996 13.6802 17.9596 14.0002 18.5996 14.6402C19.2396 15.2802 19.5596 16.0302 19.5596 16.9102C19.5596 17.8202 19.2396 18.5902 18.6096 19.2302C17.9796 19.8702 17.2096 20.1902 16.3296 20.1902H5.48957C4.60957 20.1902 3.85957 19.8702 3.21957 19.2202C2.58957 18.5702 2.26957 17.8002 2.26957 16.9002ZM8.96957 4.63016C8.96957 4.87016 9.04957 5.08016 9.20957 5.26016L9.86957 5.90016C10.1196 6.09016 10.3296 6.17016 10.5096 6.15016C10.7196 6.15016 10.8996 6.06016 11.0596 5.89016C11.2196 5.72016 11.2996 5.51016 11.2996 5.27016C11.2996 5.03016 11.2096 4.83016 11.0396 4.68016L10.4496 4.02016C10.2696 3.86016 10.0696 3.78016 9.83957 3.78016C9.59957 3.78016 9.38957 3.86016 9.21957 4.03016C9.04957 4.19016 8.96957 4.39016 8.96957 4.63016ZM14.3096 9.06016C14.9996 8.39016 15.8196 8.06016 16.7596 8.06016C17.7496 8.06016 18.5896 8.40016 19.2796 9.09016C19.9696 9.78016 20.3196 10.6102 20.3196 11.6002C20.3196 12.2202 20.1496 12.8402 19.8096 13.4402C18.8396 12.4802 17.6796 12.0002 16.3196 12.0002H15.9996C15.7496 10.9102 15.1896 9.93016 14.3096 9.06016ZM15.9396 3.78016C15.9396 4.04016 16.0196 4.24016 16.1696 4.40016C16.3196 4.56016 16.5196 4.63016 16.7596 4.63016C17.0196 4.63016 17.2196 4.55016 17.3796 4.40016C17.5396 4.24016 17.6096 4.04016 17.6096 3.78016V1.73016C17.6096 1.49016 17.5296 1.30016 17.3696 1.14016C17.2096 0.980156 17.0096 0.910156 16.7596 0.910156C16.5196 0.910156 16.3296 0.990156 16.1696 1.14016C16.0096 1.29016 15.9396 1.49016 15.9396 1.73016V3.78016ZM21.4596 6.07016C21.4596 6.33016 21.5296 6.53016 21.6796 6.69016C21.8896 6.85016 22.0996 6.93016 22.2996 6.93016C22.4796 6.93016 22.6796 6.85016 22.8896 6.69016L24.3196 5.26016C24.4796 5.08016 24.5596 4.87016 24.5596 4.62016C24.5596 4.38016 24.4796 4.18016 24.3196 4.02016C24.1596 3.86016 23.9596 3.78016 23.7296 3.78016C23.4896 3.78016 23.2996 3.86016 23.1496 4.02016L21.6796 5.45016C21.5296 5.64016 21.4596 5.84016 21.4596 6.07016ZM22.2496 17.9102C22.2496 18.1502 22.3296 18.3602 22.4996 18.5402L23.1496 19.1702C23.2996 19.3302 23.4896 19.4102 23.7296 19.4102C23.9696 19.4102 24.1696 19.3302 24.3296 19.1602C24.4896 18.9902 24.5696 18.7902 24.5696 18.5402C24.5696 18.3202 24.4896 18.1202 24.3296 17.9602L23.6796 17.3102C23.5196 17.1502 23.3296 17.0702 23.1096 17.0702C22.8696 17.0702 22.6696 17.1502 22.5096 17.3102C22.3396 17.4702 22.2496 17.6702 22.2496 17.9102ZM23.7196 11.6002C23.7196 11.8302 23.8096 12.0202 23.9796 12.1802C24.1396 12.3402 24.3496 12.4202 24.5896 12.4202H26.6296C26.8596 12.4202 27.0496 12.3402 27.2096 12.1902C27.3696 12.0402 27.4396 11.8402 27.4396 11.6002C27.4396 11.3602 27.3596 11.1602 27.2096 11.0002C27.0596 10.8402 26.8596 10.7502 26.6296 10.7502H24.5896C24.3496 10.7502 24.1496 10.8302 23.9796 11.0002C23.7996 11.1702 23.7196 11.3702 23.7196 11.6002Z" fill="#F9BC46"/>
</svg>
