<svg width="24" height="15" viewBox="0 0 24 15" fill="none" xmlns="http://www.w3.org/2000/svg">
<path d="M0.889648 10.5999C0.889648 9.60994 1.19965 8.71994 1.81965 7.94994C2.43965 7.17994 3.22965 6.67994 4.19965 6.45994C4.45965 5.28994 5.04965 4.31994 5.97965 3.57994C6.90965 2.82994 7.97965 2.45994 9.19965 2.45994C10.3796 2.45994 11.4396 2.81994 12.3596 3.54994C13.2896 4.27994 13.8896 5.20994 14.1596 6.34994H14.4296C15.6096 6.34994 16.6096 6.75994 17.4396 7.58994C18.2696 8.41994 18.6896 9.41994 18.6896 10.5899C18.6896 11.7699 18.2696 12.7699 17.4396 13.5999C16.6096 14.4299 15.6096 14.8499 14.4296 14.8499H5.15965C4.57965 14.8499 4.02965 14.7399 3.50965 14.5099C2.98965 14.2799 2.51965 13.9999 2.13965 13.6199C1.75965 13.2399 1.45965 12.7799 1.22965 12.2599C0.999648 11.7399 0.889648 11.1699 0.889648 10.5999ZM2.33965 10.5999C2.33965 11.3599 2.61965 12.0199 3.15965 12.5599C3.69965 13.0999 4.36965 13.3799 5.14965 13.3799H14.4296C15.1996 13.3799 15.8696 13.1099 16.4196 12.5599C16.9696 12.0099 17.2496 11.3599 17.2496 10.5999C17.2496 9.83994 16.9796 9.17994 16.4196 8.63994C15.8696 8.09994 15.2096 7.81994 14.4296 7.81994H13.0396C12.9396 7.81994 12.8896 7.76994 12.8896 7.66994L12.8196 7.17994C12.7196 6.23994 12.3196 5.44994 11.6296 4.82994C10.9396 4.20994 10.1196 3.89994 9.17965 3.89994C8.23965 3.89994 7.41965 4.20994 6.71965 4.83994C6.01965 5.45994 5.62965 6.24994 5.53965 7.17994L5.46965 7.59994C5.46965 7.69994 5.41965 7.74994 5.30965 7.74994L4.85965 7.81994C4.13965 7.87994 3.53965 8.17994 3.04965 8.70994C2.58965 9.23994 2.33965 9.86994 2.33965 10.5999ZM11.1896 1.87994C11.0896 1.96994 11.1096 2.03994 11.2596 2.08994C11.6896 2.27994 12.0496 2.45994 12.3396 2.63994C12.4496 2.66994 12.5296 2.65994 12.5596 2.60994C13.1696 2.03994 13.8696 1.74994 14.6796 1.74994C15.4896 1.74994 16.1796 2.01994 16.7796 2.55994C17.3696 3.09994 17.6996 3.76994 17.7696 4.55994L17.8596 5.19994H19.2796C19.9296 5.19994 20.4896 5.42994 20.9596 5.89994C21.4296 6.36994 21.6596 6.91994 21.6596 7.55994C21.6596 8.15994 21.4496 8.67994 21.0396 9.12994C20.6296 9.57994 20.1196 9.82994 19.5096 9.89994C19.4096 9.89994 19.3596 9.94994 19.3596 10.0599V11.1899C19.3596 11.2999 19.4096 11.3499 19.5096 11.3499C20.5196 11.2899 21.3696 10.8899 22.0596 10.1599C22.7496 9.42994 23.0996 8.55994 23.0996 7.55994C23.0996 6.49994 22.7296 5.59994 21.9796 4.85994C21.2296 4.10994 20.3296 3.73994 19.2796 3.73994H19.1296C18.8696 2.73994 18.3196 1.91994 17.4796 1.26994C16.6496 0.619944 15.7096 0.299944 14.6796 0.299944C13.2796 0.289944 12.1096 0.819944 11.1896 1.87994Z" fill="#6170A5"/>
</svg>
