<svg width="24" height="20" viewBox="0 0 24 20" fill="none" xmlns="http://www.w3.org/2000/svg">
<path d="M0.950195 8.0499C0.950195 7.1199 1.2402 6.2999 1.8202 5.5699C2.4002 4.8399 3.1302 4.3699 4.0102 4.1699C4.2702 3.0699 4.8302 2.1699 5.7102 1.4599C6.5902 0.749902 7.5902 0.399902 8.7202 0.399902C9.8202 0.399902 10.8002 0.749902 11.6702 1.4399C12.5402 2.1299 13.1002 3.0099 13.3502 4.0899H13.6102C14.7102 4.0899 15.6502 4.4799 16.4302 5.2499C17.2102 6.0199 17.6002 6.9599 17.6002 8.0599C17.6002 8.0699 17.6002 8.0799 17.6002 8.0999C17.6002 8.1199 17.6002 8.1399 17.6002 8.1599C18.3502 8.9599 18.7202 9.9099 18.7202 11.0099C18.7202 11.7699 18.5302 12.4699 18.1502 13.1099C17.7702 13.7599 17.2602 14.2699 16.6202 14.6399C15.9802 15.0199 15.2802 15.1999 14.5302 15.1999C13.5702 15.1999 12.7102 14.8999 11.9702 14.3099C11.2302 13.7199 10.7302 12.9599 10.4902 12.0499H4.7902C3.7202 11.9999 2.8102 11.5899 2.0702 10.8199C1.3302 10.0499 0.950195 9.1199 0.950195 8.0499ZM2.3102 8.0499C2.3102 8.7499 2.5502 9.3599 3.0402 9.8699C3.5302 10.3799 4.1102 10.6599 4.7902 10.6899H13.7802C14.4602 10.6599 15.0502 10.3899 15.5302 9.8699C16.0202 9.3499 16.2602 8.7499 16.2602 8.0499C16.2602 7.3399 16.0002 6.7299 15.4702 6.2199C14.9402 5.6999 14.3302 5.4499 13.6102 5.4499H12.3202C12.2302 5.4499 12.1802 5.3999 12.1802 5.3099L12.1102 4.8399C12.0202 3.9699 11.6502 3.2399 10.9902 2.6499C10.3302 2.0599 9.5702 1.7599 8.7102 1.7599C7.8202 1.7599 7.0502 2.0499 6.4002 2.6399C5.7502 3.2299 5.4002 3.9599 5.3102 4.8299L5.2502 5.2999C5.2502 5.3899 5.2002 5.4399 5.0902 5.4399H4.6902C4.0202 5.5199 3.4502 5.7999 3.0002 6.2999C2.5402 6.7899 2.3102 7.3799 2.3102 8.0499ZM8.5102 17.0599C8.2602 16.7299 8.2602 16.4099 8.5102 16.0799L9.6402 14.9299C9.7802 14.8099 9.9502 14.7499 10.1602 14.7499C10.3502 14.7499 10.5002 14.8099 10.6202 14.9299C10.7402 15.0499 10.8002 15.2099 10.8002 15.3999C10.8002 15.5999 10.7402 15.7599 10.6202 15.8799L9.4802 17.0599C9.3602 17.1799 9.1902 17.2499 8.9902 17.2499C8.7902 17.2499 8.6302 17.1799 8.5102 17.0599ZM11.9002 12.0399C12.1102 12.5799 12.4602 13.0099 12.9402 13.3399C13.4202 13.6699 13.9502 13.8399 14.5402 13.8399C15.3102 13.8399 15.9702 13.5599 16.5102 13.0099C17.0502 12.4499 17.3202 11.7799 17.3202 10.9899C17.3202 10.5999 17.2602 10.2499 17.1302 9.9399C16.8002 10.5499 16.3302 11.0499 15.7402 11.4299C15.1402 11.8099 14.4902 12.0099 13.7802 12.0399H11.9002ZM13.8502 17.2299C13.8502 17.0399 13.9202 16.8899 14.0502 16.7599C14.1802 16.6399 14.3502 16.5699 14.5302 16.5699C14.7102 16.5699 14.8802 16.6399 15.0302 16.7799C15.1502 16.8999 15.2202 17.0499 15.2202 17.2299V18.8699C15.2202 19.0599 15.1502 19.2199 15.0202 19.3599C14.8902 19.4999 14.7202 19.5699 14.5402 19.5699C14.3602 19.5699 14.1902 19.4999 14.0602 19.3599C13.9302 19.2199 13.8602 19.0599 13.8602 18.8699V17.2299H13.8502ZM18.2602 15.3999C18.2602 15.2199 18.3202 15.0699 18.4502 14.9399C18.5802 14.8199 18.7402 14.7499 18.9202 14.7499C19.1102 14.7499 19.2702 14.8099 19.3902 14.9299L20.5702 16.0799C20.7002 16.2199 20.7702 16.3799 20.7702 16.5599C20.7702 16.7499 20.7002 16.9099 20.5702 17.0399C20.4402 17.1699 20.2702 17.2399 20.0802 17.2399C19.8702 17.2399 19.7102 17.1799 19.5802 17.0499L18.4502 15.8699C18.3202 15.7299 18.2602 15.5699 18.2602 15.3999ZM18.2602 6.5899C18.2602 6.3999 18.3202 6.2399 18.4502 6.1199L19.5802 4.9399C19.7202 4.8199 19.8802 4.7499 20.0802 4.7499C20.2702 4.7499 20.4302 4.8099 20.5802 4.9399C20.7102 5.0899 20.7802 5.2599 20.7802 5.4499C20.7802 5.6299 20.7102 5.7799 20.5802 5.9299L19.4002 7.0799C19.2802 7.1999 19.1202 7.2699 18.9302 7.2699C18.7402 7.2699 18.5802 7.2099 18.4602 7.0799C18.3202 6.9399 18.2602 6.7799 18.2602 6.5899ZM20.0802 10.9899C20.0802 10.7999 20.1402 10.6399 20.2702 10.5099C20.3902 10.3799 20.5502 10.3099 20.7402 10.3099H22.3602C22.5502 10.3099 22.7202 10.3799 22.8602 10.5099C23.0002 10.6399 23.0702 10.7999 23.0702 10.9899C23.0702 11.1799 23.0002 11.3499 22.8602 11.4799C22.7202 11.6099 22.5602 11.6799 22.3602 11.6799H20.7402C20.5502 11.6799 20.4002 11.6099 20.2702 11.4799C20.1402 11.3499 20.0802 11.1899 20.0802 10.9899Z" fill="#A9B5E2"/>
</svg>
