<svg width="24" height="21" viewBox="0 0 24 21" fill="none" xmlns="http://www.w3.org/2000/svg">
<path d="M0.580078 10.4502C0.580078 9.3002 0.940078 8.2702 1.66008 7.3802C2.38008 6.4802 3.29008 5.9002 4.40008 5.6402C4.71008 4.2702 5.42008 3.1502 6.51008 2.2702C7.60008 1.3902 8.86008 0.950195 10.2701 0.950195C11.6501 0.950195 12.8801 1.3802 13.9601 2.2302C15.0401 3.0802 15.7401 4.1802 16.0601 5.5202H16.3901C17.2901 5.5202 18.1201 5.7402 18.8801 6.1702C19.6401 6.6002 20.2501 7.2002 20.6901 7.9602C21.1301 8.7202 21.3601 9.5402 21.3601 10.4402C21.3601 10.6402 21.3501 10.8402 21.3301 11.0502C21.9801 11.5602 22.4901 12.2002 22.8701 12.9602C23.2501 13.7202 23.4301 14.5302 23.4301 15.3902C23.4301 16.1602 23.2801 16.8902 22.9801 17.5802C22.6801 18.2702 22.2801 18.8602 21.7801 19.3602C21.2801 19.8502 20.6801 20.2502 19.9901 20.5402C19.3001 20.8302 18.5801 20.9802 17.8201 20.9802C17.0701 20.9802 16.3501 20.8302 15.6601 20.5402C14.9701 20.2502 14.3801 19.8502 13.8801 19.3502C13.3801 18.8502 12.9901 18.2602 12.6901 17.5702C12.3901 16.8802 12.2401 16.1602 12.2401 15.4102H5.38008C4.04008 15.3502 2.91008 14.8402 1.98008 13.8802C1.05008 12.9402 0.580078 11.7902 0.580078 10.4502ZM2.29008 10.4502C2.29008 11.3202 2.59008 12.0702 3.19008 12.7102C3.79008 13.3502 4.52008 13.6902 5.38008 13.7402H16.5701C17.4301 13.7002 18.1601 13.3502 18.7601 12.7102C19.3701 12.0702 19.6701 11.3102 19.6701 10.4502C19.6701 9.5702 19.3401 8.8202 18.6901 8.1802C18.0401 7.5402 17.2701 7.2202 16.3701 7.2202H14.7501C14.6401 7.2202 14.5801 7.1602 14.5801 7.0502L14.5101 6.4702C14.4001 5.3902 13.9301 4.4802 13.1101 3.7502C12.2901 3.0202 11.3401 2.6502 10.2501 2.6502C9.16008 2.6502 8.20008 3.0202 7.40008 3.7502C6.60008 4.4802 6.14008 5.3902 6.04008 6.4702L5.96008 7.0502C5.96008 7.1602 5.89008 7.2202 5.76008 7.2202H5.24008C4.40008 7.3202 3.70008 7.6802 3.14008 8.2902C2.57008 8.9002 2.29008 9.6202 2.29008 10.4502ZM13.5501 15.5602C13.6101 16.6802 14.0701 17.6302 14.9201 18.3902C15.7701 19.1502 16.7401 19.5302 17.8301 19.5302C18.4301 19.5302 19.0001 19.4102 19.5301 19.1802C20.0601 18.9502 20.5101 18.6302 20.8701 18.2502C21.2301 17.8602 21.5201 17.4202 21.7201 16.9202C21.9301 16.4202 22.0301 15.9202 22.0301 15.4002C22.0301 14.9102 21.9301 14.4202 21.7301 13.9302C21.5301 13.4402 21.2501 12.9902 20.8801 12.5802C20.4901 13.4002 19.9101 14.0802 19.1401 14.6002C18.3701 15.1202 17.5101 15.3902 16.5701 15.4302H13.5401C13.5401 15.4402 13.5401 15.4702 13.5501 15.5602Z" fill="#455CAF"/>
</svg>
