<svg width="22" height="15" viewBox="0 0 22 15" fill="none" xmlns="http://www.w3.org/2000/svg">
<path d="M0.610352 9.88014C0.610352 8.73014 0.970351 7.71014 1.69035 6.81014C2.41035 5.91014 3.32035 5.33014 4.43035 5.08014C4.74035 3.71014 5.45035 2.59014 6.54035 1.71014C7.63035 0.830137 8.89035 0.390137 10.3004 0.390137C11.6804 0.390137 12.9104 0.820137 13.9904 1.67014C15.0704 2.52014 15.7704 3.62014 16.0904 4.96014H16.4204C17.3204 4.96014 18.1504 5.18014 18.9104 5.61014C19.6704 6.04014 20.2804 6.64014 20.7204 7.40014C21.1604 8.16014 21.3904 8.98014 21.3904 9.88014C21.3904 10.7601 21.1804 11.5801 20.7604 12.3301C20.3404 13.0801 19.7604 13.6801 19.0304 14.1301C18.3004 14.5801 17.4904 14.8201 16.6204 14.8501H5.41035C4.07035 14.7901 2.94035 14.2801 2.01035 13.3201C1.08035 12.3701 0.610352 11.2201 0.610352 9.88014ZM2.32035 9.88014C2.32035 10.7501 2.62035 11.5001 3.22035 12.1401C3.82035 12.7801 4.55035 13.1201 5.41035 13.1701H16.6004C17.4604 13.1301 18.1904 12.7801 18.7904 12.1401C19.4004 11.5001 19.7004 10.7401 19.7004 9.88014C19.7004 9.00014 19.3704 8.25014 18.7204 7.61014C18.0704 6.97014 17.3004 6.65014 16.4004 6.65014H14.8004C14.6904 6.65014 14.6304 6.59014 14.6304 6.47014L14.5604 5.90014C14.4504 4.82014 13.9804 3.91014 13.1604 3.18014C12.3404 2.45014 11.3904 2.08014 10.3004 2.08014C9.21035 2.08014 8.25035 2.45014 7.45035 3.18014C6.64035 3.91014 6.18035 4.82014 6.08035 5.90014L6.00035 6.47014C6.00035 6.59014 5.93035 6.65014 5.80035 6.65014H5.27035C4.43035 6.75014 3.73035 7.11014 3.17035 7.72014C2.61035 8.33014 2.32035 9.05014 2.32035 9.88014Z" fill="#0A5FDE"/>
</svg>
