<svg width="26" height="18" viewBox="0 0 26 18" fill="none" xmlns="http://www.w3.org/2000/svg">
<path d="M0.620117 14.0499C0.620117 13.8099 0.700117 13.5999 0.870117 13.4399C1.04012 13.2799 1.25012 13.1999 1.50012 13.1999H20.1701C20.4201 13.1999 20.6201 13.2799 20.7801 13.4399C20.9401 13.5999 21.0201 13.7999 21.0201 14.0499C21.0201 14.2799 20.9401 14.4799 20.7701 14.6299C20.6001 14.7899 20.4001 14.8599 20.1701 14.8599H1.50012C1.25012 14.8599 1.04012 14.7799 0.870117 14.6299C0.700117 14.4699 0.620117 14.2799 0.620117 14.0499ZM3.24012 10.9099C3.24012 10.6699 3.33012 10.4699 3.50012 10.3099C3.65012 10.1599 3.85012 10.0799 4.09012 10.0799H22.7601C22.9901 10.0799 23.1801 10.1599 23.3401 10.3199C23.5001 10.4799 23.5701 10.6699 23.5701 10.9099C23.5701 11.1499 23.4901 11.3499 23.3401 11.5099C23.1801 11.6799 22.9901 11.7599 22.7601 11.7599H4.09012C3.85012 11.7599 3.65012 11.6799 3.49012 11.5099C3.32012 11.3399 3.24012 11.1399 3.24012 10.9099ZM3.37012 8.51992C3.37012 8.60992 3.42012 8.64992 3.52012 8.64992H4.95012C5.01012 8.64992 5.08012 8.59992 5.15012 8.48992C5.39012 7.96992 5.74012 7.54992 6.21012 7.21992C6.68012 6.88992 7.20012 6.69992 7.76012 6.65992L8.31012 6.58992C8.42012 6.58992 8.48012 6.52992 8.48012 6.40992L8.55012 5.90992C8.66012 4.82992 9.11012 3.92992 9.92012 3.20992C10.7301 2.48992 11.6801 2.12992 12.7701 2.12992C13.8501 2.12992 14.7901 2.48992 15.6001 3.19992C16.4001 3.90992 16.8601 4.80992 16.9701 5.87992L17.0501 6.44992C17.0501 6.55992 17.1201 6.61992 17.2501 6.61992H18.8401C19.4801 6.61992 20.0701 6.78992 20.6001 7.13992C21.1301 7.48992 21.5201 7.93992 21.7801 8.50992C21.8501 8.61992 21.9201 8.66992 21.9901 8.66992H23.4201C23.5401 8.66992 23.5901 8.59992 23.5601 8.43992C23.2701 7.41992 22.6801 6.57992 21.8201 5.92992C20.9501 5.27992 19.9601 4.95992 18.8501 4.95992H18.5301C18.2001 3.62992 17.5001 2.53992 16.4301 1.68992C15.3601 0.839921 14.1501 0.419922 12.7801 0.419922C11.3801 0.419922 10.1401 0.859922 9.05012 1.73992C7.96012 2.61992 7.27012 3.73992 6.96012 5.09992C6.11012 5.29992 5.36012 5.69992 4.72012 6.30992C4.08012 6.91992 3.63012 7.63992 3.38012 8.48992V8.44992C3.37012 8.44992 3.37012 8.47992 3.37012 8.51992ZM4.98012 17.1099C4.98012 16.8699 5.07012 16.6799 5.24012 16.5199C5.39012 16.3699 5.59012 16.2899 5.84012 16.2899H24.5201C24.7601 16.2899 24.9601 16.3699 25.1201 16.5199C25.2901 16.6799 25.3701 16.8699 25.3701 17.0999C25.3701 17.3399 25.2901 17.5399 25.1201 17.7099C24.9501 17.8799 24.7501 17.9599 24.5201 17.9599H5.84012C5.61012 17.9599 5.41012 17.8699 5.24012 17.6999C5.07012 17.5499 4.98012 17.3399 4.98012 17.1099Z" fill="#6599FF"/>
</svg>
