<svg width="22" height="21" viewBox="0 0 22 21" fill="none" xmlns="http://www.w3.org/2000/svg">
<path d="M0.639648 9.89994C0.639648 11.2299 1.09965 12.3699 2.02965 13.3299C2.95965 14.2899 4.08965 14.7999 5.42965 14.8599C5.53965 14.8599 5.59965 14.7999 5.59965 14.6899V13.3499C5.59965 13.2399 5.53965 13.1799 5.42965 13.1799C4.56965 13.1399 3.84965 12.7999 3.24965 12.1599C2.64965 11.5199 2.34965 10.7699 2.34965 9.89994C2.34965 9.06994 2.62965 8.35994 3.18965 7.73994C3.74965 7.12994 4.44965 6.76994 5.27965 6.66994L5.80965 6.63994C5.93965 6.63994 6.00965 6.57994 6.00965 6.44994L6.06965 5.91994C6.17965 4.83994 6.62965 3.92994 7.43965 3.20994C8.24965 2.47994 9.19965 2.11994 10.2896 2.11994C11.3796 2.11994 12.3296 2.47994 13.1396 3.20994C13.9496 3.93994 14.4096 4.83994 14.5296 5.91994L14.6096 6.49994C14.6096 6.60994 14.6696 6.66994 14.7896 6.66994H16.3996C17.2896 6.66994 18.0596 6.98994 18.7096 7.62994C19.3596 8.26994 19.6896 9.01994 19.6896 9.89994C19.6896 10.7699 19.3896 11.5199 18.7896 12.1599C18.1896 12.7999 17.4596 13.1399 16.6096 13.1799C16.4796 13.1799 16.4096 13.2399 16.4096 13.3499V14.6899C16.4096 14.7999 16.4796 14.8599 16.6096 14.8599C17.4796 14.8399 18.2796 14.5999 19.0096 14.1499C19.7396 13.6999 20.3196 13.0999 20.7396 12.3499C21.1596 11.5999 21.3696 10.7799 21.3696 9.90994C21.3696 9.01994 21.1496 8.18994 20.6996 7.43994C20.2596 6.68994 19.6496 6.08994 18.8896 5.65994C18.1296 5.22994 17.2896 4.99994 16.3996 4.99994H16.0796C15.7596 3.65994 15.0496 2.56994 13.9796 1.71994C12.9096 0.869942 11.6796 0.439941 10.2996 0.439941C8.88965 0.439941 7.63965 0.879941 6.54965 1.74994C5.45965 2.61994 4.75965 3.73994 4.44965 5.09994C3.33965 5.35994 2.42965 5.92994 1.71965 6.82994C1.00965 7.72994 0.639648 8.74994 0.639648 9.89994ZM6.08965 17.0999C6.17965 17.3099 6.33965 17.4699 6.54965 17.5599C6.74965 17.6599 6.95965 17.6699 7.16965 17.5799C7.38965 17.4899 7.52965 17.3399 7.61965 17.1299C7.71965 16.9099 7.72965 16.6999 7.63965 16.4899C7.55965 16.2799 7.39965 16.1399 7.18965 16.0499C6.98965 15.9399 6.78965 15.9299 6.57965 16.0199C6.36965 16.1099 6.21965 16.2599 6.11965 16.4899C6.00965 16.6599 6.00965 16.8599 6.08965 17.0999ZM6.71965 14.2799C6.71965 14.4399 6.76965 14.5899 6.86965 14.7299C6.96965 14.8799 7.12965 14.9799 7.32965 15.0499C7.51965 15.1599 7.72965 15.1699 7.94965 15.0599C8.16965 14.9599 8.31965 14.7599 8.38965 14.4599L9.28965 11.0799C9.34965 10.8299 9.32965 10.6099 9.20965 10.4099C9.08965 10.2099 8.91965 10.0899 8.67965 10.0499C8.59965 10.0299 8.51965 10.0199 8.43965 10.0199C8.27965 10.0199 8.11965 10.0699 7.96965 10.1699C7.81965 10.2699 7.70965 10.4199 7.64965 10.6099L6.76965 13.9999C6.72965 14.1599 6.71965 14.2499 6.71965 14.2799ZM8.57965 19.8699C8.57965 19.9899 8.59965 20.0899 8.63965 20.1599C8.72965 20.3799 8.87965 20.5299 9.08965 20.6099C9.17965 20.6599 9.28965 20.6899 9.41965 20.6899C9.47965 20.6899 9.57965 20.6699 9.71965 20.6299C9.93965 20.5499 10.0996 20.3999 10.1896 20.1799C10.2896 19.9599 10.2896 19.7399 10.1896 19.5199C10.0896 19.2999 9.93965 19.1499 9.73965 19.0599C9.53965 18.9699 9.33965 18.9699 9.11965 19.0599C8.92965 19.1399 8.79965 19.2599 8.70965 19.4199C8.61965 19.5799 8.57965 19.7299 8.57965 19.8699ZM9.30965 17.2599C9.30965 17.6299 9.51965 17.8699 9.93965 17.9899C10.0496 18.0199 10.1296 18.0299 10.1796 18.0299C10.3296 18.0299 10.4596 17.9999 10.5596 17.9499C10.7696 17.8699 10.9096 17.6799 10.9796 17.3799L12.6496 11.0899C12.7096 10.8499 12.6896 10.6399 12.5896 10.4399C12.4896 10.2499 12.3196 10.1199 12.0996 10.0599C12.0196 10.0399 11.9296 10.0299 11.8296 10.0299C11.6696 10.0299 11.5096 10.0799 11.3496 10.1799C11.1896 10.2799 11.0896 10.4299 11.0496 10.6199L9.33965 16.9599C9.31965 17.0999 9.30965 17.1999 9.30965 17.2599ZM12.7396 16.7999C12.7396 16.9199 12.7596 17.0299 12.8196 17.1199C12.8996 17.3099 13.0496 17.4599 13.2596 17.5599C13.3696 17.5999 13.4896 17.6299 13.6096 17.6299C13.6696 17.6299 13.7696 17.6099 13.9096 17.5699C14.1196 17.4899 14.2796 17.3399 14.3696 17.1299C14.4396 16.9099 14.4396 16.6999 14.3596 16.4999C14.2796 16.2999 14.1396 16.1499 13.9396 16.0499C13.7096 15.9399 13.4996 15.9299 13.2896 16.0199C13.0796 16.1099 12.9296 16.2599 12.8296 16.4899C12.7696 16.5899 12.7396 16.6899 12.7396 16.7999ZM13.4696 14.2299C13.4696 14.3699 13.5196 14.5199 13.6296 14.6799C13.7396 14.8399 13.8896 14.9499 14.0796 15.0099C14.2396 15.0399 14.3296 15.0599 14.3496 15.0599C14.4396 15.0599 14.5696 15.0299 14.7196 14.9599C14.9196 14.8699 15.0496 14.6899 15.1196 14.4399L16.0196 11.0999C16.0396 10.9299 16.0496 10.8399 16.0496 10.8399C16.0496 10.6799 15.9996 10.5299 15.8996 10.3799C15.7996 10.2299 15.6496 10.1299 15.4496 10.0699C15.3596 10.0499 15.2696 10.0399 15.1896 10.0399C15.0296 10.0399 14.8696 10.0899 14.7196 10.1899C14.5696 10.2899 14.4696 10.4399 14.4096 10.6399L13.5096 13.9999L13.4696 14.2299Z" fill="#566CB5"/>
</svg>
