<svg width="16" height="15" viewBox="0 0 16 15" fill="none" xmlns="http://www.w3.org/2000/svg">
<path d="M0.910156 7.47988C0.910156 6.51988 1.10016 5.60988 1.47016 4.72988C1.84016 3.84988 2.35016 3.09988 2.98016 2.46988C3.61016 1.83988 4.37016 1.32988 5.25016 0.949883C6.13016 0.569883 7.05016 0.379883 8.00016 0.379883H9.14016C9.30016 0.419883 9.37016 0.519883 9.37016 0.659883L9.42016 1.53988C9.46016 2.80988 9.91016 3.88988 10.7902 4.77988C11.6702 5.66988 12.7302 6.14988 13.9802 6.19988L14.8002 6.26988C14.9602 6.26988 15.0402 6.34988 15.0402 6.49988V7.47988C15.0502 8.75988 14.7402 9.94988 14.1102 11.0399C13.4802 12.1299 12.6302 12.9899 11.5402 13.6299C10.4602 14.2599 9.27016 14.5799 7.99016 14.5799C7.02016 14.5799 6.09016 14.3899 5.21016 14.0199C4.33016 13.6499 3.58016 13.1399 2.95016 12.5099C2.32016 11.8799 1.82016 11.1199 1.45016 10.2499C1.10016 9.36988 0.910156 8.44988 0.910156 7.47988ZM2.74016 7.47988C2.74016 8.23988 2.89016 8.95988 3.19016 9.63988C3.49016 10.3099 3.89016 10.8799 4.38016 11.3399C4.87016 11.7999 5.43016 12.1599 6.07016 12.4199C6.70016 12.6899 7.35016 12.8199 8.01016 12.8199C8.59016 12.8199 9.18016 12.7099 9.77016 12.4799C10.3602 12.2499 10.9102 11.9299 11.4202 11.5199C11.9302 11.1099 12.3602 10.5899 12.7302 9.94988C13.1002 9.30988 13.3302 8.61988 13.4402 7.85988C11.8102 7.51988 10.5002 6.81988 9.52016 5.75988C8.54016 4.69988 7.97016 3.45988 7.82016 2.01988C6.86016 2.07988 6.00016 2.36988 5.21016 2.89988C4.43016 3.42988 3.82016 4.09988 3.39016 4.91988C2.96016 5.73988 2.74016 6.58988 2.74016 7.47988Z" fill="#566CB5"/>
</svg>
