<svg width="22" height="21" viewBox="0 0 22 21" fill="none" xmlns="http://www.w3.org/2000/svg">
<path d="M0.639648 9.90994C0.639648 8.75994 0.999648 7.73994 1.71965 6.83994C2.43965 5.93994 3.34965 5.36994 4.44965 5.10994C4.75965 3.74994 5.46965 2.62994 6.55965 1.74994C7.64965 0.869941 8.89965 0.439941 10.3096 0.439941C11.6896 0.439941 12.9096 0.869942 13.9896 1.71994C15.0696 2.56994 15.7696 3.66994 16.0896 5.00994H16.4096C17.2996 5.00994 18.1296 5.22994 18.8896 5.65994C19.6496 6.08994 20.2596 6.68994 20.6996 7.43994C21.1396 8.18994 21.3696 9.01994 21.3696 9.90994C21.3696 10.7899 21.1596 11.5999 20.7396 12.3499C20.3196 13.0999 19.7396 13.6999 19.0096 14.1499C18.2796 14.5999 17.4796 14.8399 16.6096 14.8599C16.4796 14.8599 16.4096 14.7999 16.4096 14.6899V13.3599C16.4096 13.2399 16.4796 13.1799 16.6096 13.1799C17.4596 13.1399 18.1896 12.7999 18.7896 12.1599C19.3896 11.5199 19.6896 10.7699 19.6896 9.89994C19.6896 9.02994 19.3596 8.27994 18.7096 7.63994C18.0596 6.99994 17.2896 6.67994 16.3996 6.67994H14.7896C14.6696 6.67994 14.6096 6.61994 14.6096 6.50994L14.5296 5.92994C14.4196 4.84994 13.9496 3.93994 13.1396 3.21994C12.3196 2.48994 11.3796 2.12994 10.2896 2.12994C9.19965 2.12994 8.23965 2.48994 7.43965 3.21994C6.62965 3.94994 6.17965 4.84994 6.07965 5.92994L6.00965 6.45994C6.00965 6.57994 5.93965 6.64994 5.80965 6.64994L5.27965 6.67994C4.44965 6.77994 3.74965 7.13994 3.17965 7.74994C2.60965 8.35994 2.32965 9.07994 2.32965 9.90994C2.32965 10.7799 2.62965 11.5299 3.22965 12.1699C3.82965 12.8099 4.55965 13.1499 5.40965 13.1899C5.51965 13.1899 5.57965 13.2499 5.57965 13.3699V14.6999C5.57965 14.8099 5.51965 14.8699 5.40965 14.8699C4.06965 14.8099 2.93965 14.2999 2.00965 13.3399C1.07965 12.3799 0.639648 11.2399 0.639648 9.90994ZM5.98965 16.5999C5.98965 16.5599 5.99965 16.4899 6.02965 16.3999L7.65965 10.6299C7.71965 10.4399 7.82965 10.2899 7.97965 10.1899C8.12965 10.0899 8.28965 10.0399 8.43965 10.0399C8.50965 10.0399 8.58965 10.0499 8.67965 10.0699C8.91965 10.1099 9.09965 10.2399 9.21965 10.4399C9.33965 10.6399 9.36965 10.8599 9.29965 11.1099L7.66965 16.8399C7.54965 17.2699 7.26965 17.4799 6.84965 17.4799C6.80965 17.4799 6.77965 17.4699 6.73965 17.4599C6.67965 17.4399 6.64965 17.4299 6.63965 17.4299C6.41965 17.3699 6.25965 17.2599 6.14965 17.0999C6.03965 16.9299 5.98965 16.7699 5.98965 16.5999ZM8.60965 19.4099L11.0496 10.6399C11.0896 10.4499 11.1896 10.2999 11.3496 10.1999C11.5096 10.0999 11.6696 10.0499 11.8396 10.0499C11.9296 10.0499 12.0196 10.0599 12.1096 10.0799C12.3296 10.1399 12.4896 10.2699 12.5996 10.4699C12.7096 10.6699 12.7296 10.8799 12.6696 11.1099L10.2396 19.8899C10.1996 20.0599 10.1096 20.1999 9.94965 20.3199C9.78965 20.4399 9.62965 20.4999 9.43965 20.4999C9.34965 20.4999 9.25965 20.4799 9.18965 20.4499C8.98965 20.3999 8.81965 20.2699 8.66965 20.0599C8.55965 19.8799 8.53965 19.6699 8.60965 19.4099ZM12.7396 16.6199C12.7396 16.5799 12.7496 16.5099 12.7796 16.3899L14.4096 10.6199C14.4696 10.4299 14.5696 10.2799 14.7096 10.1799C14.8596 10.0799 15.0096 10.0299 15.1696 10.0299C15.2496 10.0299 15.3396 10.0399 15.4296 10.0599C15.6396 10.1199 15.7896 10.2199 15.8896 10.3699C15.9896 10.5199 16.0396 10.6799 16.0396 10.8399C16.0396 10.8699 16.0296 10.9199 16.0196 10.9799C16.0096 11.0399 15.9996 11.0799 15.9996 11.0999L14.3696 16.8299C14.3296 17.0199 14.2396 17.1799 14.0896 17.2899C13.9396 17.3999 13.7696 17.4599 13.5796 17.4599L13.3396 17.4099C13.1396 17.3499 12.9896 17.2499 12.8796 17.0899C12.7896 16.9399 12.7396 16.7799 12.7396 16.6199Z" fill="#0ABBDE"/>
</svg>
