<svg width="22" height="21" viewBox="0 0 22 21" fill="none" xmlns="http://www.w3.org/2000/svg">
<path d="M0.639648 9.94994C0.639648 8.78994 0.989648 7.76994 1.69965 6.86994C2.40965 5.96994 3.31965 5.38994 4.43965 5.10994C4.74965 3.74994 5.44965 2.62994 6.53965 1.74994C7.62965 0.869941 8.87965 0.439941 10.2896 0.439941C11.6696 0.439941 12.8896 0.869942 13.9696 1.71994C15.0496 2.56994 15.7496 3.66994 16.0696 5.00994H16.3896C17.2796 5.00994 18.1096 5.22994 18.8696 5.66994C19.6296 6.10994 20.2396 6.70994 20.6796 7.46994C21.1196 8.22994 21.3496 9.05994 21.3496 9.94994C21.3496 11.2699 20.8896 12.4199 19.9596 13.3699C19.0396 14.3299 17.9096 14.8299 16.5796 14.8699C16.4496 14.8699 16.3796 14.8099 16.3796 14.6999V13.3699C16.3796 13.2499 16.4496 13.1899 16.5796 13.1899C17.4296 13.1499 18.1596 12.8099 18.7596 12.1699C19.3596 11.5299 19.6596 10.7899 19.6596 9.93994C19.6596 9.04994 19.3396 8.28994 18.6896 7.63994C18.0396 6.98994 17.2696 6.66994 16.3696 6.66994H14.7596C14.6396 6.66994 14.5796 6.60994 14.5796 6.49994L14.4996 5.91994C14.3896 4.83994 13.9196 3.92994 13.1096 3.19994C12.2896 2.46994 11.3496 2.09994 10.2596 2.09994C9.15965 2.09994 8.20965 2.46994 7.39965 3.20994C6.58965 3.94994 6.12965 4.85994 6.02965 5.95994L5.96965 6.45994C5.96965 6.57994 5.89965 6.64994 5.76965 6.64994L5.23965 6.71994C4.40965 6.78994 3.70965 7.12994 3.13965 7.75994C2.56965 8.38994 2.28965 9.10994 2.28965 9.94994C2.28965 10.7999 2.58965 11.5399 3.18965 12.1799C3.78965 12.8199 4.51965 13.1499 5.36965 13.1999C5.47965 13.1999 5.53965 13.2599 5.53965 13.3799V14.7099C5.53965 14.8199 5.47965 14.8799 5.36965 14.8799C4.02965 14.8399 2.89965 14.3399 1.96965 13.3799C1.09965 12.4199 0.639648 11.2699 0.639648 9.94994ZM6.99965 14.0199C6.99965 13.7999 7.07965 13.5999 7.23965 13.4399C7.39965 13.2799 7.58965 13.1999 7.82965 13.1999C8.05965 13.1999 8.25965 13.2799 8.41965 13.4399C8.57965 13.5999 8.65965 13.7999 8.65965 14.0199C8.65965 14.2599 8.57965 14.4599 8.41965 14.6199C8.25965 14.7899 8.06965 14.8699 7.82965 14.8699C7.59965 14.8699 7.39965 14.7899 7.23965 14.6199C7.07965 14.4599 6.99965 14.2599 6.99965 14.0199ZM6.99965 17.6499C6.99965 17.4099 7.07965 17.2099 7.23965 17.0499C7.39965 16.8999 7.58965 16.8199 7.81965 16.8199C8.04965 16.8199 8.24965 16.8999 8.40965 17.0499C8.56965 17.2099 8.64965 17.3999 8.64965 17.6399C8.64965 17.8799 8.56965 18.0699 8.40965 18.2299C8.24965 18.3899 8.05965 18.4599 7.81965 18.4599C7.58965 18.4599 7.38965 18.3799 7.22965 18.2299C7.07965 18.0799 6.99965 17.8799 6.99965 17.6499ZM10.1896 15.9499C10.1896 15.7199 10.2696 15.5099 10.4396 15.3299C10.5996 15.1699 10.7896 15.0899 11.0096 15.0899C11.2396 15.0899 11.4396 15.1799 11.6096 15.3499C11.7796 15.5199 11.8696 15.7199 11.8696 15.9499C11.8696 16.1799 11.7896 16.3799 11.6196 16.5499C11.4496 16.7199 11.2496 16.7999 11.0096 16.7999C10.7796 16.7999 10.5896 16.7199 10.4296 16.5499C10.2696 16.3799 10.1896 16.1799 10.1896 15.9499ZM10.1896 12.3299C10.1896 12.0999 10.2696 11.8999 10.4396 11.7299C10.6196 11.5699 10.8096 11.4899 11.0096 11.4899C11.2496 11.4899 11.4496 11.5699 11.6196 11.7399C11.7896 11.9099 11.8696 12.0999 11.8696 12.3399C11.8696 12.5699 11.7896 12.7699 11.6196 12.9299C11.4496 13.0899 11.2496 13.1699 11.0096 13.1699C10.7796 13.1699 10.5896 13.0899 10.4296 12.9299C10.2696 12.7599 10.1896 12.5599 10.1896 12.3299ZM10.1896 19.6099C10.1896 19.3799 10.2696 19.1799 10.4396 18.9999C10.5996 18.8399 10.7896 18.7599 11.0096 18.7599C11.2496 18.7599 11.4496 18.8399 11.6196 19.0099C11.7896 19.1799 11.8696 19.3799 11.8696 19.6099C11.8696 19.8399 11.7896 20.0399 11.6196 20.1999C11.4496 20.3599 11.2496 20.4399 11.0096 20.4399C10.7796 20.4399 10.5896 20.3599 10.4296 20.1999C10.2696 20.0299 10.1896 19.8399 10.1896 19.6099ZM13.4096 14.0199C13.4096 13.7999 13.4896 13.6099 13.6596 13.4399C13.8296 13.2699 14.0296 13.1899 14.2596 13.1899C14.4896 13.1899 14.6896 13.2699 14.8496 13.4299C15.0096 13.5899 15.0896 13.7899 15.0896 14.0099C15.0896 14.2499 15.0096 14.4499 14.8496 14.6099C14.6896 14.7799 14.4996 14.8599 14.2596 14.8599C14.0196 14.8599 13.8196 14.7799 13.6596 14.6099C13.4996 14.4499 13.4096 14.2499 13.4096 14.0199ZM13.4096 17.6499C13.4096 17.4299 13.4896 17.2299 13.6596 17.0499C13.8196 16.8999 14.0196 16.8199 14.2596 16.8199C14.4996 16.8199 14.6896 16.8999 14.8496 17.0499C15.0096 17.1999 15.0796 17.3999 15.0796 17.6399C15.0796 17.8799 14.9996 18.0699 14.8496 18.2299C14.6896 18.3899 14.4996 18.4599 14.2596 18.4599C14.0196 18.4599 13.8196 18.3799 13.6596 18.2199C13.4996 18.0699 13.4096 17.8799 13.4096 17.6499Z" fill="#9BBCFF"/>
</svg>
