<svg width="22" height="21" viewBox="0 0 22 21" fill="none" xmlns="http://www.w3.org/2000/svg">
<path d="M0.629883 9.90991C0.629883 11.0199 0.959883 12.0099 1.61988 12.8799C2.27988 13.7499 3.13988 14.3499 4.19988 14.6699L3.53988 16.3499C3.50988 16.4899 3.55988 16.5699 3.67988 16.5699H5.80988L4.82988 20.8699H5.10988L9.02988 15.1199C9.06988 15.0799 9.06988 15.0299 9.03988 14.9799C9.00988 14.9299 8.95988 14.9099 8.88988 14.9099H6.70988L9.18988 10.2699C9.25988 10.1299 9.20988 10.0499 9.04988 10.0499H6.10988C6.01988 10.0499 5.93988 10.0999 5.87988 10.1999L4.80988 13.0699C4.09988 12.8899 3.50988 12.4999 3.03988 11.9099C2.56988 11.3199 2.33988 10.6499 2.33988 9.89991C2.33988 9.06991 2.61988 8.34991 3.18988 7.72991C3.75988 7.11991 4.45988 6.75991 5.28988 6.65991L5.81988 6.58991C5.94988 6.58991 6.01988 6.52991 6.01988 6.40991L6.08988 5.89991C6.19988 4.81991 6.64988 3.90991 7.45988 3.17991C8.26988 2.44991 9.21988 2.07991 10.3099 2.07991C11.3999 2.07991 12.3499 2.44991 13.1599 3.17991C13.9799 3.90991 14.4399 4.81991 14.5599 5.89991L14.6299 6.47991C14.6299 6.58991 14.6899 6.64991 14.8099 6.64991H16.4099C17.3199 6.64991 18.0899 6.96991 18.7299 7.59991C19.3699 8.22991 19.6999 8.99991 19.6999 9.87991C19.6999 10.7299 19.3999 11.4699 18.8099 12.0899C18.2199 12.7099 17.4799 13.0599 16.6099 13.1299C16.4799 13.1299 16.4099 13.1899 16.4099 13.3099V14.6799C16.4099 14.7899 16.4799 14.8499 16.6099 14.8499C17.9399 14.8099 19.0699 14.2999 19.9999 13.3399C20.9299 12.3799 21.3899 11.2299 21.3899 9.88991C21.3899 8.98991 21.1699 8.15991 20.7199 7.39991C20.2799 6.63991 19.6699 6.03991 18.9099 5.59991C18.1399 5.15991 17.3099 4.93991 16.4099 4.93991H16.0999C15.7699 3.60991 15.0599 2.51991 13.9899 1.67991C12.9199 0.839913 11.6899 0.409912 10.3099 0.409912C8.89988 0.409912 7.63988 0.849913 6.54988 1.71991C5.45988 2.58991 4.75988 3.70991 4.44988 5.07991C3.33988 5.33991 2.42988 5.90991 1.70988 6.80991C0.989883 7.70991 0.629883 8.75991 0.629883 9.90991ZM8.76988 19.6199C8.76988 20.0099 8.95988 20.2699 9.34988 20.3899C9.35988 20.3899 9.39988 20.3899 9.45988 20.3999C9.51988 20.4099 9.56988 20.4099 9.59988 20.4099C9.76988 20.4099 9.92988 20.3599 10.0899 20.2599C10.2499 20.1599 10.3599 19.9999 10.4099 19.7799L12.6599 11.0899C12.7199 10.8499 12.6999 10.6399 12.5899 10.4399C12.4799 10.2499 12.3199 10.1199 12.0899 10.0499C11.9199 10.0299 11.8299 10.0199 11.8299 10.0199C11.6699 10.0199 11.5099 10.0699 11.3599 10.1699C11.2099 10.2699 11.0999 10.4199 11.0499 10.6199L8.78988 19.3399C8.77988 19.4399 8.76988 19.5299 8.76988 19.6199ZM12.9299 16.5599C12.9299 16.6899 12.9599 16.8199 13.0299 16.9399C13.1699 17.1599 13.3399 17.3099 13.5399 17.3799C13.6499 17.4099 13.7499 17.4299 13.8399 17.4299C13.9299 17.4299 14.0399 17.4099 14.1599 17.3499C14.3699 17.2599 14.5099 17.0699 14.5799 16.7799L16.0199 11.1099C16.0499 10.9699 16.0699 10.8799 16.0699 10.8399C16.0699 10.6899 16.0199 10.5399 15.9099 10.3899C15.7999 10.2399 15.6499 10.1299 15.4499 10.0699C15.2799 10.0499 15.1899 10.0399 15.1899 10.0399C15.0199 10.0399 14.8599 10.0899 14.7199 10.1899C14.5799 10.2899 14.4799 10.4399 14.4199 10.6399L12.9599 16.3399C12.9599 16.3599 12.9599 16.3899 12.9499 16.4499C12.9299 16.4999 12.9299 16.5299 12.9299 16.5599Z" fill="#715ECA"/>
</svg>
