<svg width="22" height="22" viewBox="0 0 22 22" fill="none" xmlns="http://www.w3.org/2000/svg">
<path d="M0.370117 10.62C0.370117 10.38 0.450117 10.17 0.620117 10C0.790117 9.84 1.00012 9.76 1.22012 9.76H3.26012C3.49012 9.76 3.68012 9.84 3.84012 10.01C3.99012 10.18 4.07012 10.38 4.07012 10.62C4.07012 10.86 4.00012 11.06 3.85012 11.23C3.70012 11.4 3.50012 11.48 3.27012 11.48H1.23012C1.00012 11.48 0.800117 11.4 0.630117 11.23C0.460117 11.06 0.370117 10.86 0.370117 10.62ZM3.23012 17.55C3.23012 17.32 3.31012 17.12 3.46012 16.94L4.93012 15.51C5.08012 15.35 5.28012 15.28 5.52012 15.28C5.76012 15.28 5.96012 15.36 6.12012 15.51C6.28012 15.66 6.36012 15.85 6.36012 16.08C6.36012 16.32 6.28012 16.54 6.12012 16.72L4.70012 18.14C4.29012 18.46 3.88012 18.46 3.47012 18.14C3.31012 17.98 3.23012 17.78 3.23012 17.55ZM3.23012 3.71C3.23012 3.48 3.31012 3.28 3.46012 3.1C3.66012 2.93 3.87012 2.85 4.10012 2.85C4.32012 2.85 4.52012 2.93 4.69012 3.09L6.12012 4.56C6.28012 4.71 6.36012 4.91 6.36012 5.15C6.36012 5.39 6.28012 5.59 6.12012 5.75C5.96012 5.91 5.76012 5.99 5.52012 5.99C5.28012 5.99 5.08012 5.91 4.93012 5.75L3.47012 4.32C3.31012 4.16 3.23012 3.95 3.23012 3.71ZM5.78012 10.62C5.78012 9.69 6.01012 8.82 6.48012 8.02C6.95012 7.22 7.58012 6.58 8.39012 6.11C9.20012 5.64 10.0601 5.41 10.9901 5.41C11.6901 5.41 12.3601 5.55 13.0101 5.83C13.6501 6.11 14.2101 6.48 14.6701 6.95C15.1401 7.42 15.5101 7.97 15.7801 8.61C16.0501 9.25 16.1901 9.93 16.1901 10.63C16.1901 11.57 15.9601 12.44 15.4901 13.24C15.0201 14.04 14.3901 14.67 13.5901 15.14C12.7901 15.61 11.9201 15.84 10.9801 15.84C10.0401 15.84 9.17012 15.61 8.37012 15.14C7.57012 14.67 6.94012 14.04 6.47012 13.24C6.02012 12.43 5.78012 11.56 5.78012 10.62ZM7.48012 10.62C7.48012 11.6 7.82012 12.43 8.51012 13.12C9.19012 13.81 10.0201 14.16 11.0001 14.16C11.9801 14.16 12.8101 13.81 13.5001 13.12C14.1901 12.43 14.5401 11.6 14.5401 10.62C14.5401 9.66 14.1901 8.84 13.5001 8.15C12.8101 7.47 11.9801 7.13 11.0001 7.13C10.0301 7.13 9.20012 7.47 8.52012 8.15C7.82012 8.84 7.48012 9.66 7.48012 10.62ZM10.1401 18.4C10.1401 18.16 10.2201 17.96 10.3901 17.8C10.5601 17.64 10.7601 17.56 10.9901 17.56C11.2301 17.56 11.4401 17.64 11.6001 17.8C11.7601 17.96 11.8401 18.16 11.8401 18.4V20.39C11.8401 20.63 11.7601 20.84 11.5901 21.01C11.4201 21.18 11.2201 21.26 10.9901 21.26C10.7601 21.26 10.5501 21.18 10.3901 21.01C10.2201 20.84 10.1401 20.63 10.1401 20.39V18.4ZM10.1401 2.9V0.86C10.1401 0.63 10.2201 0.43 10.3901 0.26C10.5601 0.0900002 10.7601 0 11.0001 0C11.2401 0 11.4301 0.08 11.6001 0.25C11.7701 0.42 11.8501 0.62 11.8501 0.85V2.9C11.8501 3.13 11.7701 3.32 11.6001 3.48C11.4301 3.64 11.2301 3.71 11.0001 3.71C10.7701 3.71 10.5601 3.63 10.4001 3.48C10.2401 3.33 10.1401 3.13 10.1401 2.9ZM15.6601 16.08C15.6601 15.85 15.7401 15.66 15.8901 15.52C16.0401 15.36 16.2301 15.29 16.4501 15.29C16.6901 15.29 16.8901 15.37 17.0501 15.52L18.5101 16.95C18.6701 17.12 18.7501 17.33 18.7501 17.56C18.7501 17.79 18.6701 17.99 18.5101 18.15C18.1101 18.46 17.7101 18.46 17.3101 18.15L15.8901 16.73C15.7401 16.55 15.6601 16.34 15.6601 16.08ZM15.6601 5.16C15.6601 4.91 15.7401 4.71 15.8901 4.57L17.3101 3.1C17.4801 2.94 17.6801 2.86 17.9001 2.86C18.1401 2.86 18.3401 2.94 18.5001 3.11C18.6701 3.28 18.7501 3.48 18.7501 3.71C18.7501 3.96 18.6701 4.17 18.5101 4.33L17.0501 5.76C16.8701 5.92 16.6701 6 16.4501 6C16.2201 6 16.0401 5.92 15.8901 5.76C15.7401 5.6 15.6601 5.4 15.6601 5.16ZM17.9201 10.62C17.9201 10.38 18.0001 10.18 18.1601 10C18.3201 9.84 18.5101 9.76 18.7301 9.76H20.7501C20.9801 9.76 21.1801 9.85 21.3501 10.02C21.5201 10.19 21.6101 10.39 21.6101 10.62C21.6101 10.85 21.5201 11.05 21.3501 11.22C21.1801 11.39 20.9801 11.47 20.7501 11.47H18.7301C18.5001 11.47 18.3001 11.39 18.1501 11.22C18.0001 11.05 17.9201 10.86 17.9201 10.62Z" fill="#EAD065"/>
</svg>
